<svg width="800" height="640" viewBox="0 0 800 640" fill="none" xmlns="http://www.w3.org/2000/svg">
  <rect width="800" height="640" rx="54" fill="#F4E8D1"/>
  <circle cx="651" cy="116" r="58" fill="#FFF8EE"/>
  <circle cx="643" cy="107" r="20" fill="#F7DDBB"/>
  <path d="M154 444C154 357.961 223.761 288.2 309.8 288.2H490.2C576.239 288.2 646 357.961 646 444V463C646 472.389 638.389 480 629 480H171C161.611 480 154 472.389 154 463V444Z" fill="#4D3223"/>
  <path d="M154 406C154 319.961 223.761 250.2 309.8 250.2H490.2C576.239 250.2 646 319.961 646 406V425C646 434.389 638.389 442 629 442H171C161.611 442 154 434.389 154 425V406Z" fill="#8BC56A"/>
  <path d="M194 300C194 240.353 242.353 192 302 192H498C557.647 192 606 240.353 606 300V312H194V300Z" fill="#F8C07A"/>
  <path d="M194 312H606V338C606 347.389 598.389 355 589 355H211C201.611 355 194 347.389 194 338V312Z" fill="#F0A25D"/>
  <ellipse cx="257" cy="252" rx="13" ry="10" fill="#FFF1D6"/>
  <ellipse cx="368" cy="240" rx="13" ry="10" fill="#FFF1D6"/>
  <ellipse cx="493" cy="259" rx="13" ry="10" fill="#FFF1D6"/>
  <ellipse cx="554" cy="236" rx="13" ry="10" fill="#FFF1D6"/>
  <path d="M206 370C206 358.954 214.954 350 226 350H574C585.046 350 594 358.954 594 370V380H206V370Z" fill="#F6D179"/>
  <path d="M214 348C214 334.193 225.193 323 239 323H561C574.807 323 586 334.193 586 348V356H214V348Z" fill="#FCE590"/>
  <path d="M144 520C144 506.745 154.745 496 168 496H632C645.255 496 656 506.745 656 520V540C656 553.255 645.255 564 632 564H168C154.745 564 144 553.255 144 540V520Z" fill="#F4B063"/>
  <path d="M124 530C124 516.745 134.745 506 148 506H652C665.255 506 676 516.745 676 530V548C676 561.255 665.255 572 652 572H148C134.745 572 124 561.255 124 548V530Z" fill="#D88A3E"/>
  <circle cx="226" cy="139" r="24" fill="#C7DBC8" fill-opacity=".9"/>
  <circle cx="274" cy="104" r="11" fill="#DCEAD9"/>
  <circle cx="528" cy="144" r="17" fill="#C7DBC8" fill-opacity=".8"/>
</svg>
