<svg width="600" height="600" viewBox="0 0 600 600" fill="none" xmlns="http://www.w3.org/2000/svg">
  <rect width="600" height="600" rx="44" fill="#F6E6D1"/>
  <rect x="96" y="96" width="408" height="408" rx="36" fill="#FFFDF9"/>
  <rect x="128" y="136" width="344" height="152" rx="28" fill="#DDE9D8"/>
  <circle cx="190" cy="210" r="42" fill="#8FBE72"/>
  <circle cx="190" cy="210" r="18" fill="#DCECB9"/>
  <path d="M266 181H412" stroke="#6F866D" stroke-width="18" stroke-linecap="round"/>
  <path d="M266 223H382" stroke="#93A58D" stroke-width="14" stroke-linecap="round"/>
  <rect x="128" y="320" width="92" height="120" rx="20" fill="#F7DDB9"/>
  <rect x="236" y="352" width="92" height="88" rx="20" fill="#C9DDC9"/>
  <rect x="344" y="334" width="92" height="106" rx="20" fill="#A8CC87"/>
  <path d="M128 470C128 458.954 136.954 450 148 450H452C463.046 450 472 458.954 472 470V476H128V470Z" fill="#ECEEE4"/>
</svg>
