<svg xmlns="http://www.w3.org/2000/svg" viewBox="0 0 24 24" fill="none">
  <path fill="#91A48E" d="M13.5 2 13.996 1.938A.5.5 0 0 0 13.5 1.5v.5Zm-3 0v-.5a.5.5 0 0 0-.496.438L10.5 2Zm3.275 2.198-.496.062a.5.5 0 0 0 .385.426l.111-.488Zm2.487 1.03-.267.423a.5.5 0 0 0 .574-.028l-.307-.395Zm1.749-1.36.353-.354a.5.5 0 0 0-.66-.04l.307.394Zm2.121 2.122.395.307a.5.5 0 0 0-.041-.66l-.353.353Zm-1.36 1.748-.395-.307a.5.5 0 0 0-.028.574l.423-.267Zm1.03 2.487-.488.11a.5.5 0 0 0 .426.385l.062-.496ZM22 10.5h.5a.5.5 0 0 0-.438-.496L22 10.5Zm0 3 .062.496A.5.5 0 0 0 22.5 13.5H22Zm-2.198.275-.062-.497a.5.5 0 0 0-.426.386l.488.11Zm-1.03 2.487-.424-.267a.5.5 0 0 0 .029.574l.395-.307Zm1.36 1.748.353.354a.5.5 0 0 0 .041-.66l-.395.306Zm-2.122 2.122-.307.394a.5.5 0 0 0 .66-.04l-.353-.354Zm-1.748-1.36.307-.394a.5.5 0 0 0-.574-.029l.267.424Zm-2.487 1.03-.111-.488a.5.5 0 0 0-.385.426l.496.062ZM13.5 22v.5a.5.5 0 0 0 .496-.438L13.5 22Zm-3 0-.496.062a.5.5 0 0 0 .496.438V22Zm-.275-2.198.497-.062a.5.5 0 0 0-.386-.426l-.11.488Zm-2.487-1.03.267-.424a.5.5 0 0 0-.574.029l.307.394Zm-1.749 1.36-.353.354a.5.5 0 0 0 .66.04l-.307-.394Zm-2.121-2.122-.395-.306a.5.5 0 0 0 .04.66l.354-.354Zm1.36-1.748.394.307a.5.5 0 0 0 .03-.574l-.424.267Zm-1.03-2.487.488-.11a.5.5 0 0 0-.426-.386l-.062.497ZM2 13.5h-.5a.5.5 0 0 0 .438.496L2 13.5Zm0-3-.062-.496A.5.5 0 0 0 1.5 10.5H2Zm2.198-.275.062.496a.5.5 0 0 0 .426-.385l-.488-.111Zm1.03-2.487.424.267a.5.5 0 0 0-.03-.574l-.394.307Zm-1.36-1.749-.354-.353a.5.5 0 0 0-.04.66l.394-.307Zm2.122-2.121.306-.395a.5.5 0 0 0-.66.041l.354.354Zm1.748 1.36-.307.395a.5.5 0 0 0 .574.028l-.267-.423Zm2.487-1.03.11.487a.5.5 0 0 0 .386-.426L10.225 2.2ZM13.5 1.5h-3v1h3v-1Zm.771 2.636-.275-2.198-.992.124.274 2.197.993-.123Zm2.257.67a8.066 8.066 0 0 0-2.643-1.097l-.22.976c.844.191 1.63.522 2.33.966l.533-.846Zm.04.817 1.749-1.36-.614-.789-1.749 1.36.614.789Zm1.089-1.4 2.121 2.121.707-.707-2.121-2.121-.707.707Zm2.08 1.46-1.36 1.748.79.614 1.36-1.749-.79-.613Zm.553 4.432a8.066 8.066 0 0 0-1.097-2.644l-.846.534c.444.7.775 1.486.965 2.33l.977-.22ZM22.062 10l-2.197-.275-.124.992 2.197.275.124-.992ZM22.5 13.5v-3h-1v3h1Zm-2.636.771 2.198-.275-.124-.992-2.198.275.124.992Zm-.67 2.257a8.066 8.066 0 0 0 1.096-2.643l-.976-.22a7.07 7.07 0 0 1-.966 2.33l.846.533Zm1.333 1.175-1.36-1.748-.79.614 1.36 1.748.79-.614Zm-2.163 2.782 2.121-2.121-.707-.707-2.121 2.121.707.707Zm-2.41-1.319 1.748 1.36.614-.79-1.748-1.36-.614.79Zm-2.07 1.123a8.066 8.066 0 0 0 2.644-1.097l-.534-.846a7.07 7.07 0 0 1-2.33.965l.22.977ZM13 22.062l.275-2.197-.992-.124-.275 2.197.992.124Zm-2.5.438h3v-1h-3v1Zm-.771-2.636.275 2.198.992-.124-.275-2.198-.992.124Zm-2.257-.67a8.066 8.066 0 0 0 2.643 1.096l.22-.976a7.07 7.07 0 0 1-2.33-.966l-.533.846Zm-1.176 1.333 1.749-1.36-.614-.79-1.749 1.36.614.79Zm-2.782-2.163 2.121 2.121.707-.707-2.121-2.121-.707.707Zm1.319-2.41-1.36 1.749.79.613 1.36-1.748-.79-.614Zm-1.123-2.07a8.066 8.066 0 0 0 1.097 2.644l.846-.534a7.07 7.07 0 0 1-.965-2.33l-.977.22ZM1.938 14l2.197.275.124-.992-2.197-.275-.124.992ZM1.5 10.5v3h1v-3h-1Zm2.636-.771-2.198.275.124.992 2.198-.275-.124-.992Zm.67-2.257a8.066 8.066 0 0 0-1.096 2.643l.976.22c.19-.844.522-1.63.966-2.33l-.846-.533Zm-1.333-1.176 1.36 1.749.79-.614-1.36-1.749-.79.614Zm2.163-2.782-2.121 2.121.707.707 2.121-2.121-.707-.707Zm2.41 1.319-1.748-1.36-.614.79 1.748 1.36.614-.79Zm2.068-1.123a8.066 8.066 0 0 0-2.643 1.097l.534.846a7.07 7.07 0 0 1 2.33-.965l-.22-.977Zm-.11-1.771-.275 2.197.992.124.275-2.197-.992-.124Z"/>
  <circle cx="12" cy="12" r="4" stroke="#91A48E" stroke-width="1.4" stroke-linejoin="round"/>
</svg>
